<svg width="264" height="83" viewBox="0 0 264 83" fill="none" xmlns="http://www.w3.org/2000/svg">
<path d="M2.60609 34.731C0.750292 34.2473 -0.366559 32.354 0.109992 30.4946C0.587943 28.6306 2.48622 27.507 4.35023 27.9849L3.48499 31.3599C4.3308 28.0612 4.35117 27.9862 4.35316 27.9849C4.35373 27.985 4.35592 27.9855 4.35706 27.9858C4.35924 27.9864 4.36149 27.9872 4.3639 27.9878C4.36889 27.9891 4.37454 27.9911 4.3805 27.9927C4.39267 27.9959 4.40738 27.999 4.42347 28.0034C4.45573 28.0122 4.49625 28.0239 4.54359 28.0376C4.63802 28.0649 4.76184 28.1022 4.91077 28.1509C5.20874 28.2483 5.61219 28.3921 6.08558 28.5913C7.02333 28.986 8.28827 29.6208 9.57191 30.5835C12.1897 32.5468 14.9625 35.9714 14.9625 41.3003C14.9625 46.6291 12.1897 50.0538 9.57191 52.0171C8.28831 52.9797 7.0233 53.6136 6.08558 54.0083C5.61208 54.2076 5.20879 54.3513 4.91077 54.4487C4.76171 54.4975 4.63808 54.5356 4.54359 54.563C4.49629 54.5767 4.45572 54.5874 4.42347 54.5962C4.40734 54.6006 4.3927 54.6047 4.3805 54.6079C4.37457 54.6095 4.36887 54.6105 4.3639 54.6118C4.36149 54.6124 4.35924 54.6132 4.35706 54.6138C4.35592 54.6141 4.35373 54.6146 4.35316 54.6147C4.34969 54.6075 4.30813 54.4509 3.48499 51.2407L4.35023 54.6157C2.48624 55.0936 0.587939 53.9699 0.109993 52.106C-0.367629 50.2429 0.754542 48.3458 2.61683 47.8667L2.6139 47.8667C2.61217 47.8671 2.61054 47.8683 2.60902 47.8686C2.60586 47.8695 2.60248 47.87 2.60023 47.8706L2.60609 47.8686C2.62858 47.8621 2.6766 47.8483 2.74574 47.8257C2.88484 47.7802 3.1066 47.7016 3.38245 47.5854C3.94338 47.3493 4.67674 46.9778 5.39124 46.4419C6.77009 45.4077 7.99374 43.8622 7.99378 41.3003C7.99378 38.7384 6.77007 37.1929 5.39124 36.1587C4.67663 35.6227 3.94341 35.2503 3.38245 35.0142C3.1066 34.898 2.88484 34.8204 2.74573 34.7749C2.67656 34.7523 2.62858 34.7384 2.60609 34.7319L2.60023 34.73C2.6018 34.7304 2.60407 34.7304 2.60609 34.731Z" fill="black"/>
<path d="M18.443 9.17542C17.4728 7.5212 18.0218 5.3927 19.6736 4.41488C21.3296 3.43479 23.4664 3.98253 24.4465 5.63851L21.4482 7.41318C24.3788 5.67876 24.4463 5.64009 24.4486 5.64058C24.4489 5.64109 24.4501 5.64302 24.4507 5.64403C24.4518 5.64597 24.4529 5.6481 24.4541 5.65025C24.4567 5.6547 24.4593 5.66011 24.4624 5.66544C24.4687 5.67632 24.4769 5.68895 24.4852 5.70342C24.5018 5.73244 24.5222 5.76937 24.546 5.81252C24.5934 5.89862 24.6546 6.01253 24.7255 6.15227C24.8673 6.43184 25.0509 6.81878 25.2448 7.29441C25.6288 8.23662 26.0744 9.5799 26.3013 11.1683C26.7641 14.4076 26.3032 18.7899 22.5351 22.558C18.7671 26.326 14.3848 26.7869 11.1455 26.3241C9.55713 26.0972 8.21445 25.6509 7.27226 25.2669C6.79651 25.0731 6.40974 24.8895 6.13012 24.7477C5.99026 24.6767 5.87583 24.6163 5.78969 24.5688C5.74657 24.545 5.71029 24.5239 5.68127 24.5074C5.66676 24.499 5.6535 24.4916 5.6426 24.4853C5.6373 24.4822 5.63253 24.4789 5.6281 24.4763C5.62595 24.475 5.62382 24.474 5.62189 24.4728C5.62087 24.4722 5.61894 24.4711 5.61843 24.4708C5.62112 24.4632 5.70242 24.3231 7.39034 21.4711L5.61567 24.4694C3.95973 23.4892 3.41196 21.3524 4.39204 19.6964C5.37168 18.0413 7.50661 17.4934 9.16225 18.4714L9.16018 18.4693C9.15864 18.4684 9.1567 18.468 9.15535 18.4672C9.15254 18.4656 9.14977 18.4636 9.14775 18.4624L9.15328 18.4652C9.17378 18.4765 9.21754 18.5006 9.28241 18.5335C9.41293 18.5997 9.62534 18.7009 9.90251 18.8139C10.4661 19.0436 11.2474 19.2994 12.1315 19.4257C13.8378 19.6694 15.7959 19.4418 17.6075 17.6303C19.419 15.8188 19.6466 13.8607 19.4029 12.1544C19.2765 11.2701 19.0214 10.4883 18.7917 9.92465C18.6788 9.64748 18.5769 9.43577 18.5107 9.30524C18.4778 9.24034 18.4536 9.19662 18.4423 9.17612L18.4396 9.17059C18.4404 9.172 18.442 9.17363 18.443 9.17542Z" fill="black"/>
<path d="M47.8693 2.60609C48.353 0.750292 50.2463 -0.366559 52.1057 0.109992C53.9697 0.587943 55.0933 2.48622 54.6154 4.35023L51.2404 3.48499C54.5391 4.3308 54.6141 4.35117 54.6154 4.35316C54.6153 4.35373 54.6147 4.35592 54.6144 4.35706C54.6139 4.35924 54.6131 4.36149 54.6125 4.3639C54.6112 4.36889 54.6092 4.37454 54.6076 4.3805C54.6044 4.39267 54.6012 4.40738 54.5969 4.42347C54.5881 4.45573 54.5764 4.49625 54.5627 4.54359C54.5354 4.63802 54.4981 4.76184 54.4494 4.91077C54.352 5.20874 54.2082 5.61219 54.009 6.08558C53.6142 7.02333 52.9795 8.28827 52.0168 9.57191C50.0535 12.1897 46.6289 14.9625 41.3 14.9625C35.9712 14.9625 32.5465 12.1897 30.5832 9.57191C29.6205 8.28831 28.9867 7.0233 28.592 6.08558C28.3927 5.61208 28.249 5.20879 28.1516 4.91077C28.1028 4.76171 28.0646 4.63808 28.0373 4.54359C28.0236 4.49629 28.0129 4.45572 28.0041 4.42347C27.9997 4.40734 27.9956 4.3927 27.9924 4.3805C27.9908 4.37457 27.9898 4.36887 27.9885 4.3639C27.9878 4.36149 27.9871 4.35924 27.9865 4.35706C27.9862 4.35592 27.9857 4.35373 27.9855 4.35316C27.9928 4.34969 28.1493 4.30813 31.3596 3.48499L27.9846 4.35023C27.5067 2.48624 28.6303 0.587939 30.4943 0.109993C32.3574 -0.367629 34.2544 0.754542 34.7336 2.61683L34.7336 2.6139C34.7331 2.61217 34.732 2.61054 34.7316 2.60902C34.7308 2.60586 34.7303 2.60248 34.7297 2.60023L34.7316 2.60609C34.7381 2.62858 34.752 2.6766 34.7746 2.74574C34.8201 2.88484 34.8987 3.1066 35.0148 3.38245C35.251 3.94338 35.6225 4.67674 36.1584 5.39124C37.1926 6.77009 38.7381 7.99374 41.3 7.99378C43.8619 7.99378 45.4074 6.77007 46.4416 5.39124C46.9776 4.67663 47.35 3.94341 47.5861 3.38245C47.7022 3.1066 47.7799 2.88484 47.8254 2.74573C47.848 2.67656 47.8618 2.62858 47.8683 2.60609L47.8703 2.60023C47.8699 2.6018 47.8699 2.60407 47.8693 2.60609Z" fill="black"/>
<path d="M79.9941 34.731C81.8499 34.2473 82.9667 32.354 82.4902 30.4946C82.0122 28.6306 80.1139 27.507 78.2499 27.9849L79.1152 31.3599C78.2694 28.0612 78.249 27.9862 78.247 27.9849C78.2464 27.985 78.2442 27.9855 78.2431 27.9858C78.2409 27.9864 78.2387 27.9872 78.2363 27.9878C78.2313 27.9891 78.2256 27.9911 78.2197 27.9927C78.2075 27.9959 78.1928 27.999 78.1767 28.0034C78.1444 28.0122 78.1039 28.0239 78.0566 28.0376C77.9621 28.0649 77.8383 28.1022 77.6894 28.1509C77.3914 28.2483 76.988 28.3921 76.5146 28.5913C75.5768 28.986 74.3119 29.6208 73.0283 30.5835C70.4105 32.5468 67.6376 35.9714 67.6376 41.3003C67.6377 46.6291 70.4105 50.0538 73.0283 52.0171C74.3119 52.9797 75.5769 53.6136 76.5146 54.0083C76.9881 54.2076 77.3914 54.3513 77.6894 54.4487C77.8384 54.4975 77.9621 54.5356 78.0566 54.563C78.1039 54.5767 78.1444 54.5874 78.1767 54.5962C78.1928 54.6006 78.2075 54.6047 78.2197 54.6079C78.2256 54.6095 78.2313 54.6105 78.2363 54.6118C78.2387 54.6124 78.2409 54.6132 78.2431 54.6138C78.2442 54.6141 78.2464 54.6146 78.247 54.6147C78.2505 54.6075 78.292 54.4509 79.1152 51.2407L78.2499 54.6157C80.1139 55.0936 82.0122 53.9699 82.4902 52.106C82.9678 50.2429 81.8456 48.3458 79.9833 47.8667L79.9863 47.8667C79.988 47.8671 79.9896 47.8683 79.9911 47.8687C79.9943 47.8695 79.9977 47.87 79.9999 47.8706L79.9941 47.8687C79.9716 47.8621 79.9236 47.8483 79.8544 47.8257C79.7153 47.7802 79.4936 47.7016 79.2177 47.5854C78.6568 47.3493 77.9234 46.9778 77.2089 46.4419C75.8301 45.4077 74.6064 43.8622 74.6064 41.3003C74.6064 38.7384 75.8301 37.1929 77.2089 36.1587C77.9235 35.6227 78.6567 35.2503 79.2177 35.0142C79.4936 34.898 79.7153 34.8204 79.8544 34.7749C79.9236 34.7523 79.9716 34.7384 79.9941 34.7319L79.9999 34.73C79.9984 34.7304 79.9961 34.7304 79.9941 34.731Z" fill="black"/>
<path d="M64.1572 9.17543C65.1274 7.5212 64.5784 5.3927 62.9266 4.41489C61.2706 3.4348 59.1338 3.98253 58.1537 5.63851L61.152 7.41318C58.2214 5.67877 58.1539 5.64009 58.1516 5.64058C58.1513 5.64109 58.1501 5.64302 58.1495 5.64404C58.1484 5.64598 58.1473 5.64811 58.1461 5.65025C58.1434 5.6547 58.1409 5.66012 58.1378 5.66544C58.1314 5.67632 58.1233 5.68895 58.115 5.70342C58.0984 5.73245 58.078 5.76938 58.0542 5.81253C58.0068 5.89863 57.9456 6.01254 57.8747 6.15227C57.7329 6.43184 57.5492 6.81879 57.3554 7.29441C56.9714 8.23663 56.5258 9.57991 56.2989 11.1683C55.8361 14.4076 56.297 18.7899 60.0651 22.558C63.8331 26.326 68.2154 26.7869 71.4547 26.3241C73.0431 26.0972 74.3857 25.6509 75.3279 25.2669C75.8037 25.0731 76.1904 24.8895 76.4701 24.7477C76.6099 24.6767 76.7244 24.6163 76.8105 24.5688C76.8536 24.545 76.8899 24.5239 76.9189 24.5074C76.9334 24.499 76.9467 24.4916 76.9576 24.4853C76.9629 24.4822 76.9677 24.4789 76.9721 24.4763C76.9742 24.475 76.9764 24.474 76.9783 24.4728C76.9793 24.4722 76.9812 24.4711 76.9818 24.4708C76.9791 24.4632 76.8978 24.3231 75.2098 21.4711L76.9845 24.4694C78.6405 23.4892 79.1882 21.3524 78.2081 19.6964C77.2285 18.0413 75.0936 17.4934 73.4379 18.4714L73.44 18.4693C73.4415 18.4684 73.4435 18.468 73.4448 18.4673C73.4477 18.4656 73.4504 18.4636 73.4524 18.4624L73.4469 18.4652C73.4264 18.4765 73.3827 18.5006 73.3178 18.5335C73.1873 18.5997 72.9749 18.7009 72.6977 18.8139C72.1341 19.0436 71.3528 19.2994 70.4686 19.4257C68.7624 19.6694 66.8043 19.4418 64.9927 17.6303C63.1812 15.8188 62.9536 13.8607 63.1973 12.1544C63.3236 11.2701 63.5788 10.4883 63.8084 9.92466C63.9214 9.64749 64.0233 9.43577 64.0895 9.30525C64.1224 9.24034 64.1465 9.19663 64.1578 9.17612L64.1606 9.17059C64.1598 9.172 64.1582 9.17363 64.1572 9.17543Z" fill="black"/>
<path d="M18.443 73.4248C17.4728 75.079 18.0218 77.2075 19.6736 78.1853C21.3296 79.1654 23.4664 78.6177 24.4465 76.9617L21.4482 75.187C24.3788 76.9215 24.4463 76.9601 24.4486 76.9596C24.4489 76.9591 24.4501 76.9572 24.4507 76.9562C24.4518 76.9542 24.4529 76.9521 24.4541 76.95C24.4567 76.9455 24.4593 76.9401 24.4624 76.9348C24.4687 76.9239 24.4769 76.9113 24.4852 76.8968C24.5018 76.8678 24.5222 76.8308 24.546 76.7877C24.5934 76.7016 24.6546 76.5877 24.7255 76.4479C24.8673 76.1684 25.051 75.7814 25.2448 75.3058C25.6288 74.3636 26.0744 73.0203 26.3013 71.4319C26.7641 68.1926 26.3032 63.8103 22.5351 60.0422C18.7671 56.2742 14.3848 55.8133 11.1455 56.2761C9.55713 56.503 8.21445 56.9493 7.27226 57.3333C6.79651 57.5272 6.40974 57.7107 6.13012 57.8526C5.99026 57.9235 5.87583 57.9839 5.78968 58.0314C5.74657 58.0552 5.71029 58.0763 5.68127 58.0929C5.66676 58.1012 5.6535 58.1086 5.6426 58.115C5.6373 58.1181 5.63253 58.1213 5.6281 58.1239C5.62595 58.1252 5.62382 58.1263 5.62189 58.1274C5.62087 58.128 5.61894 58.1292 5.61843 58.1295C5.62112 58.1371 5.70242 58.2771 7.39034 61.1291L5.61567 58.1308C3.95973 59.111 3.41196 61.2478 4.39204 62.9038C5.37168 64.5589 7.50661 65.1069 9.16225 64.1288L9.16018 64.1309C9.15864 64.1318 9.1567 64.1322 9.15535 64.133C9.15254 64.1346 9.14977 64.1366 9.14775 64.1378L9.15328 64.135C9.17378 64.1237 9.21754 64.0996 9.28241 64.0667C9.41293 64.0005 9.62534 63.8993 9.90251 63.7863C10.4661 63.5567 11.2474 63.3008 12.1315 63.1745C13.8378 62.9308 15.7959 63.1584 17.6075 64.9699C19.419 66.7814 19.6466 68.7396 19.4029 70.4458C19.2765 71.3301 19.0214 72.1119 18.7917 72.6756C18.6788 72.9527 18.5769 73.1645 18.5107 73.295C18.4778 73.3599 18.4536 73.4036 18.4423 73.4241L18.4396 73.4296C18.4404 73.4282 18.442 73.4266 18.443 73.4248Z" fill="black"/>
<path d="M47.8693 79.9941C48.353 81.8499 50.2463 82.9668 52.1057 82.4902C53.9697 82.0123 55.0933 80.114 54.6154 78.25L51.2404 79.1152C54.5391 78.2694 54.6141 78.249 54.6154 78.2471C54.6153 78.2465 54.6147 78.2443 54.6144 78.2432C54.6139 78.241 54.6131 78.2387 54.6125 78.2363C54.6112 78.2313 54.6092 78.2257 54.6076 78.2197C54.6044 78.2076 54.6012 78.1928 54.5969 78.1767C54.5881 78.1445 54.5764 78.104 54.5627 78.0566C54.5354 77.9622 54.4981 77.8384 54.4494 77.6894C54.352 77.3915 54.2082 76.988 54.009 76.5146C53.6142 75.5769 52.9795 74.312 52.0168 73.0283C50.0535 70.4105 46.6289 67.6377 41.3 67.6377C35.9712 67.6377 32.5465 70.4106 30.5832 73.0283C29.6205 74.3119 28.9867 75.5769 28.592 76.5146C28.3927 76.9881 28.249 77.3914 28.1516 77.6894C28.1028 77.8385 28.0646 77.9621 28.0373 78.0566C28.0236 78.1039 28.0129 78.1445 28.0041 78.1768C27.9997 78.1929 27.9956 78.2075 27.9924 78.2197C27.9908 78.2257 27.9898 78.2313 27.9885 78.2363C27.9878 78.2387 27.9871 78.241 27.9865 78.2432C27.9862 78.2443 27.9857 78.2465 27.9855 78.2471C27.9928 78.2505 28.1493 78.2921 31.3596 79.1152L27.9846 78.25C27.5067 80.114 28.6303 82.0123 30.4943 82.4902C32.3574 82.9678 34.2544 81.8457 34.7336 79.9834L34.7336 79.9863C34.7331 79.9881 34.732 79.9897 34.7316 79.9912C34.7308 79.9944 34.7303 79.9977 34.7297 80L34.7316 79.9941C34.7381 79.9716 34.752 79.9236 34.7746 79.8545C34.8201 79.7154 34.8987 79.4936 35.0148 79.2178C35.251 78.6568 35.6225 77.9235 36.1584 77.209C37.1926 75.8301 38.7381 74.6065 41.3 74.6064C43.8619 74.6064 45.4074 75.8302 46.4416 77.209C46.9776 77.9236 47.35 78.6568 47.5861 79.2178C47.7022 79.4936 47.7799 79.7154 47.8254 79.8545C47.848 79.9237 47.8618 79.9716 47.8683 79.9941L47.8703 80C47.8699 79.9984 47.8699 79.9961 47.8693 79.9941Z" fill="black"/>
<path d="M64.1572 73.4248C65.1274 75.079 64.5784 77.2075 62.9266 78.1853C61.2706 79.1654 59.1338 78.6177 58.1537 76.9617L61.152 75.187C58.2214 76.9215 58.1539 76.9601 58.1516 76.9596C58.1513 76.9591 58.1501 76.9572 58.1495 76.9562C58.1484 76.9542 58.1473 76.9521 58.1461 76.95C58.1435 76.9455 58.1409 76.9401 58.1378 76.9348C58.1314 76.9239 58.1233 76.9113 58.115 76.8968C58.0984 76.8678 58.078 76.8308 58.0542 76.7877C58.0068 76.7016 57.9456 76.5877 57.8747 76.448C57.7329 76.1684 57.5492 75.7814 57.3554 75.3058C56.9714 74.3636 56.5258 73.0203 56.2989 71.4319C55.8361 68.1926 56.297 63.8103 60.0651 60.0422C63.8331 56.2742 68.2154 55.8133 71.4547 56.2761C73.0431 56.503 74.3857 56.9493 75.3279 57.3333C75.8037 57.5272 76.1904 57.7107 76.4701 57.8526C76.6099 57.9235 76.7244 57.9839 76.8105 58.0314C76.8536 58.0552 76.8899 58.0763 76.9189 58.0929C76.9334 58.1012 76.9467 58.1086 76.9576 58.115C76.9629 58.1181 76.9677 58.1213 76.9721 58.1239C76.9742 58.1252 76.9764 58.1263 76.9783 58.1274C76.9793 58.128 76.9812 58.1292 76.9818 58.1295C76.9791 58.1371 76.8978 58.2771 75.2098 61.1291L76.9845 58.1308C78.6405 59.111 79.1882 61.2478 78.2081 62.9038C77.2285 64.5589 75.0936 65.1069 73.4379 64.1288L73.44 64.1309C73.4415 64.1318 73.4435 64.1322 73.4448 64.133C73.4477 64.1346 73.4504 64.1366 73.4524 64.1378L73.4469 64.135C73.4264 64.1237 73.3827 64.0996 73.3178 64.0667C73.1873 64.0005 72.9749 63.8993 72.6977 63.7863C72.1341 63.5567 71.3528 63.3008 70.4686 63.1745C68.7624 62.9308 66.8043 63.1584 64.9927 64.9699C63.1812 66.7814 62.9536 68.7396 63.1973 70.4458C63.3236 71.3301 63.5788 72.1119 63.8084 72.6756C63.9214 72.9527 64.0233 73.1645 64.0895 73.295C64.1224 73.3599 64.1465 73.4036 64.1579 73.4241L64.1606 73.4296C64.1598 73.4282 64.1582 73.4266 64.1572 73.4248Z" fill="black"/>
<path d="M47.8693 45.2378C48.3529 43.382 50.2462 42.2652 52.1056 42.7417C53.9696 43.2197 55.0933 45.1179 54.6154 46.9819L51.2404 46.1167C54.539 46.9625 54.6141 46.9829 54.6154 46.9849C54.6152 46.9854 54.6147 46.9876 54.6144 46.9888C54.6138 46.991 54.6131 46.9932 54.6124 46.9956C54.6111 47.0006 54.6091 47.0063 54.6075 47.0122C54.6043 47.0244 54.6012 47.0391 54.5968 47.0552C54.588 47.0874 54.5763 47.128 54.5626 47.1753C54.5353 47.2697 54.498 47.3936 54.4493 47.5425C54.3519 47.8405 54.2082 48.2439 54.0089 48.7173C53.6142 49.655 52.9794 50.92 52.0167 52.2036C50.0534 54.8214 46.6288 57.5942 41.2999 57.5942C35.9711 57.5942 32.5464 54.8214 30.5831 52.2036C29.6205 50.92 28.9866 49.655 28.5919 48.7173C28.3926 48.2438 28.2489 47.8405 28.1515 47.5425C28.1028 47.3934 28.0646 47.2698 28.0372 47.1753C28.0236 47.128 28.0128 47.0874 28.004 47.0552C27.9996 47.039 27.9955 47.0244 27.9923 47.0122C27.9907 47.0063 27.9897 47.0006 27.9884 46.9956C27.9878 46.9932 27.987 46.991 27.9865 46.9888C27.9862 46.9876 27.9856 46.9854 27.9855 46.9849C27.9928 46.9814 28.1493 46.9398 31.3595 46.1167L27.9845 46.9819C27.5066 45.118 28.6303 43.2197 30.4943 42.7417C32.3573 42.2641 34.2544 43.3863 34.7335 45.2485V45.2456C34.7331 45.2439 34.732 45.2423 34.7316 45.2407C34.7307 45.2376 34.7302 45.2342 34.7296 45.2319L34.7316 45.2378C34.7381 45.2603 34.7519 45.3083 34.7745 45.3774C34.82 45.5166 34.8987 45.7383 35.0148 46.0142C35.2509 46.5751 35.6224 47.3085 36.1583 48.023C37.1925 49.4018 38.738 50.6255 41.2999 50.6255C43.8618 50.6255 45.4073 49.4018 46.4415 48.023C46.9775 47.3083 47.3499 46.5751 47.5861 46.0142C47.7022 45.7383 47.7798 45.5166 47.8253 45.3774C47.8479 45.3083 47.8618 45.2603 47.8683 45.2378L47.8702 45.2319C47.8698 45.2335 47.8698 45.2358 47.8693 45.2378Z" fill="black"/>
<path d="M28.6948 35.6637C28.6948 32.7943 28.6948 29.9248 28.6948 28.9C28.6948 26.7493 30.4386 25.0055 32.5893 25.0055C34.74 25.0055 36.4838 26.7493 36.4838 28.9V35.6637C36.4838 37.8144 34.74 39.5582 32.5893 39.5582C30.4386 39.5582 28.6948 37.8144 28.6948 35.6637Z" fill="black"/>
<path d="M46.7312 35.6637C46.7312 32.7943 46.7312 29.9248 46.7312 28.9C46.7312 26.7493 48.475 25.0055 50.6258 25.0055C52.7765 25.0055 54.5203 26.7493 54.5203 28.9V35.6637C54.5203 37.8144 52.7765 39.5582 50.6258 39.5582C48.475 39.5582 46.7312 37.8144 46.7312 35.6637Z" fill="black"/>
<path d="M252.087 58.7816C249.755 58.7816 247.704 58.2726 245.934 57.2544C244.178 56.2216 242.806 54.7903 241.817 52.9606C240.843 51.1162 240.356 48.9914 240.356 46.5862C240.356 44.1663 240.843 42.0415 241.817 40.2119C242.806 38.3674 244.178 36.9288 245.934 35.8959C247.704 34.863 249.755 34.3466 252.087 34.3466C253.621 34.3466 255.038 34.5753 256.336 35.0327C257.635 35.4754 258.764 36.1098 259.723 36.9361C260.697 37.7625 261.471 38.7437 262.047 39.8799C262.622 41.0013 262.962 42.2481 263.065 43.6204H256.757C256.668 43.0154 256.499 42.4694 256.248 41.9825C256.012 41.4956 255.702 41.0751 255.318 40.7209C254.935 40.3668 254.477 40.0938 253.946 39.902C253.429 39.7102 252.839 39.6143 252.175 39.6143C251.083 39.6143 250.146 39.902 249.364 40.4775C248.582 41.0382 247.977 41.8423 247.549 42.89C247.136 43.9229 246.93 45.1549 246.93 46.5862C246.93 48.0028 247.136 49.2275 247.549 50.2603C247.977 51.2932 248.582 52.0974 249.364 52.6729C250.146 53.2336 251.083 53.5139 252.175 53.5139C252.839 53.5139 253.429 53.418 253.946 53.2262C254.462 53.0344 254.905 52.7614 255.274 52.4073C255.658 52.0531 255.967 51.6326 256.204 51.1457C256.44 50.644 256.609 50.0833 256.713 49.4635H263.065C262.991 50.8211 262.666 52.0679 262.091 53.2041C261.53 54.3255 260.763 55.3067 259.789 56.1478C258.815 56.9888 257.672 57.6381 256.358 58.0955C255.06 58.5529 253.636 58.7816 252.087 58.7816Z" fill="black"/>
<path d="M232.249 58.2505V34.8778H238.778V58.2505H232.249ZM235.502 31.9341C234.425 31.9341 233.532 31.6095 232.824 30.9602C232.116 30.2962 231.762 29.4625 231.762 28.4592C231.762 27.4558 232.116 26.6295 232.824 25.9802C233.532 25.3163 234.418 24.9843 235.48 24.9843C236.557 24.9843 237.45 25.3163 238.158 25.9802C238.867 26.6295 239.221 27.4558 239.221 28.4592C239.221 29.4625 238.867 30.2962 238.158 30.9602C237.45 31.6095 236.565 31.9341 235.502 31.9341Z" fill="black"/>
<path d="M230.981 34.8778V39.9906H215.642V34.8778H230.981ZM219.67 28.5034H226.2V51.035C226.2 51.8171 226.355 52.363 226.665 52.6729C226.989 52.9828 227.594 53.1377 228.48 53.1377C228.848 53.1377 229.284 53.1377 229.785 53.1377C230.302 53.1377 230.7 53.1377 230.981 53.1377V58.2505C230.582 58.2505 230.029 58.2505 229.321 58.2505C228.612 58.2505 227.897 58.2505 227.174 58.2505C224.606 58.2505 222.71 57.7488 221.485 56.7454C220.275 55.742 219.67 54.178 219.67 52.0532V28.5034Z" fill="black"/>
<path d="M201.67 58.6489C200.12 58.6489 198.741 58.3907 197.531 57.8742C196.321 57.3578 195.369 56.5831 194.675 55.5502C193.982 54.5026 193.635 53.2041 193.635 51.6548C193.635 50.3415 193.879 49.2496 194.366 48.3791C194.853 47.4937 195.517 46.7855 196.358 46.2543C197.213 45.7083 198.187 45.2952 199.279 45.0148C200.386 44.7345 201.544 44.5426 202.754 44.4394C204.185 44.2918 205.322 44.1516 206.163 44.0188C207.004 43.886 207.609 43.6942 207.978 43.4434C208.346 43.1925 208.531 42.8162 208.531 42.3146V42.1596C208.531 41.5842 208.376 41.0825 208.066 40.6546C207.756 40.2119 207.314 39.8652 206.738 39.6143C206.177 39.3635 205.499 39.238 204.702 39.238C203.905 39.238 203.197 39.3635 202.577 39.6143C201.972 39.8652 201.492 40.2193 201.138 40.6767C200.784 41.1341 200.578 41.6653 200.519 42.2703H194.388C194.491 40.6619 194.963 39.2676 195.804 38.0871C196.66 36.9067 197.855 35.9992 199.39 35.3647C200.924 34.7155 202.761 34.3909 204.901 34.3909C206.495 34.3909 207.918 34.5753 209.173 34.9442C210.427 35.2983 211.482 35.8222 212.338 36.5157C213.208 37.2092 213.865 38.0502 214.308 39.0388C214.75 40.0275 214.972 41.1489 214.972 42.4031V58.2505H208.597V54.9526H208.509C208.096 55.7199 207.586 56.3765 206.982 56.9225C206.377 57.4684 205.639 57.8964 204.768 58.2062C203.898 58.5013 202.865 58.6489 201.67 58.6489ZM203.484 54.1116C204.532 54.1116 205.432 53.9198 206.185 53.5361C206.952 53.1525 207.542 52.6286 207.955 51.9646C208.369 51.3007 208.575 50.5481 208.575 49.7071V47.3609C208.383 47.4642 208.132 47.5675 207.823 47.6708C207.513 47.7593 207.151 47.8479 206.738 47.9364C206.325 48.0102 205.875 48.0913 205.388 48.1799C204.901 48.2684 204.399 48.3496 203.883 48.4233C203.13 48.5414 202.452 48.7258 201.847 48.9767C201.242 49.2128 200.762 49.5374 200.408 49.9505C200.054 50.3489 199.877 50.858 199.877 51.4777C199.877 52.0237 200.024 52.4958 200.319 52.8942C200.615 53.2926 201.035 53.5951 201.581 53.8017C202.127 54.0083 202.761 54.1116 203.484 54.1116Z" fill="black"/>
<path d="M156.489 58.2505V34.8778H162.775V40.1455H162.376C162.79 38.847 163.372 37.7773 164.125 36.9362C164.878 36.0804 165.748 35.4459 166.737 35.0327C167.725 34.6048 168.766 34.3909 169.858 34.3909C171.643 34.3909 173.192 34.9073 174.505 35.9402C175.819 36.9583 176.616 38.3601 176.896 40.1455H176.21C176.505 38.9503 177.029 37.9248 177.781 37.069C178.534 36.2132 179.449 35.5566 180.526 35.0991C181.618 34.627 182.798 34.3909 184.067 34.3909C185.572 34.3909 186.915 34.7155 188.095 35.3647C189.29 36.014 190.227 36.9657 190.906 38.2199C191.585 39.4594 191.924 40.9718 191.924 42.7572V58.2505H185.417V43.9524C185.417 42.5507 185.034 41.503 184.266 40.8095C183.514 40.116 182.577 39.7692 181.455 39.7692C180.629 39.7692 179.906 39.9537 179.286 40.3226C178.667 40.6915 178.187 41.2079 177.848 41.8719C177.523 42.5211 177.361 43.2884 177.361 44.1738V58.2505H171.075V43.7754C171.075 42.5654 170.713 41.5989 169.99 40.8759C169.267 40.1381 168.33 39.7692 167.179 39.7692C166.412 39.7692 165.711 39.9537 165.077 40.3226C164.457 40.6767 163.955 41.2079 163.572 41.9162C163.203 42.6097 163.018 43.4581 163.018 44.4615V58.2505H156.489Z" fill="black"/>
<path d="M143.025 58.7816C140.679 58.7816 138.614 58.2726 136.828 57.2544C135.043 56.2363 133.648 54.8124 132.645 52.9827C131.656 51.153 131.162 49.0209 131.162 46.5862C131.162 44.1368 131.656 41.9973 132.645 40.1676C133.648 38.3379 135.043 36.914 136.828 35.8959C138.614 34.863 140.679 34.3466 143.025 34.3466C145.401 34.3466 147.474 34.863 149.245 35.8959C151.03 36.914 152.417 38.3379 153.406 40.1676C154.409 41.9973 154.911 44.1368 154.911 46.5862C154.911 49.0209 154.409 51.153 153.406 52.9827C152.417 54.8124 151.03 56.2363 149.245 57.2544C147.474 58.2726 145.401 58.7816 143.025 58.7816ZM143.025 53.4918C144.088 53.4918 145.017 53.2188 145.814 52.6729C146.611 52.1122 147.231 51.3154 147.673 50.2825C148.116 49.2496 148.337 48.0175 148.337 46.5862C148.337 45.1254 148.116 43.8786 147.673 42.8457C147.231 41.8128 146.611 41.0234 145.814 40.4775C145.017 39.9168 144.088 39.6364 143.025 39.6364C141.978 39.6364 141.056 39.9168 140.259 40.4775C139.462 41.0234 138.842 41.8128 138.4 42.8457C137.957 43.8786 137.736 45.1254 137.736 46.5862C137.736 48.0323 137.957 49.2717 138.4 50.3046C138.842 51.3227 139.462 52.1122 140.259 52.6729C141.056 53.2188 141.978 53.4918 143.025 53.4918Z" fill="black"/>
<path d="M117.278 58.7817C114.46 58.7817 112.054 58.3391 110.062 57.4537C108.07 56.5537 106.543 55.2552 105.481 53.5583C104.418 51.8614 103.887 49.8178 103.887 47.4274H110.461C110.49 48.6373 110.778 49.6702 111.324 50.526C111.885 51.3819 112.674 52.0385 113.692 52.4959C114.71 52.9533 115.92 53.182 117.322 53.182C118.591 53.182 119.69 53.0123 120.62 52.673C121.564 52.3188 122.295 51.8245 122.811 51.19C123.342 50.5556 123.608 49.8104 123.608 48.9546C123.608 48.2463 123.401 47.634 122.988 47.1175C122.59 46.5863 121.955 46.1215 121.085 45.7231C120.229 45.3247 119.1 44.978 117.698 44.6829L114.224 43.9303C110.948 43.2221 108.513 42.108 106.92 40.5882C105.326 39.0684 104.529 37.1281 104.529 34.7672C104.529 32.7604 105.053 31.0119 106.101 29.5216C107.148 28.0166 108.609 26.8435 110.483 26.0024C112.372 25.1614 114.563 24.7408 117.057 24.7408C119.58 24.7408 121.764 25.1688 123.608 26.0246C125.452 26.8804 126.884 28.1051 127.902 29.6987C128.935 31.2775 129.488 33.1736 129.562 35.3869H123.187C123.069 33.8228 122.464 32.5908 121.373 31.6907C120.281 30.7906 118.849 30.3406 117.079 30.3406C115.972 30.3406 114.983 30.5176 114.113 30.8717C113.257 31.2111 112.578 31.6907 112.077 32.3104C111.59 32.9301 111.346 33.6384 111.346 34.4352C111.346 35.1139 111.538 35.7042 111.922 36.2059C112.305 36.6928 112.918 37.1207 113.759 37.4896C114.6 37.8585 115.692 38.1905 117.034 38.4856L120.199 39.1717C121.955 39.5553 123.475 40.0275 124.759 40.5882C126.043 41.1342 127.098 41.7908 127.924 42.5581C128.75 43.3106 129.363 44.1812 129.761 45.1698C130.159 46.1584 130.359 47.2725 130.359 48.5119C130.359 50.622 129.827 52.4516 128.765 54.001C127.717 55.5355 126.212 56.716 124.25 57.5423C122.302 58.3686 119.978 58.7817 117.278 58.7817Z" fill="black"/>
<path d="M253.646 29.3475L252.127 25.811H252.814L253.838 28.3193L254.856 25.811H255.544L254.03 29.3475H253.646ZM251.959 29.3475V25.811H252.665V29.3475H251.959ZM255.005 29.3475V25.811H255.712V29.3475H255.005ZM249.561 29.3475V26.1186H250.268V29.3475H249.561ZM248.485 26.4165V25.811H251.344V26.4165H248.485Z" fill="black"/>
</svg>
